<svg width="60" height="60" viewBox="0 0 60 60" fill="none" xmlns="http://www.w3.org/2000/svg">
<circle cx="30" cy="30" r="30" fill="#31985A"/>
<path d="M16.86 39.2C15.5933 39.2 14.6267 38.8133 13.96 38.04C13.2933 37.2533 12.9133 36.1733 12.82 34.8L14.16 34.4C14.28 35.5467 14.5333 36.4267 14.92 37.04C15.32 37.6533 15.9733 37.96 16.88 37.96C18.4 37.96 19.16 37.18 19.16 35.62C19.16 34.9533 19 34.3667 18.68 33.86C18.3733 33.3533 17.8733 32.7733 17.18 32.12L14.32 29.38C13.8 28.9 13.42 28.4 13.18 27.88C12.9533 27.3467 12.84 26.76 12.84 26.12C12.84 25.0133 13.1667 24.16 13.82 23.56C14.4867 22.9467 15.38 22.64 16.5 22.64C17.7 22.64 18.62 22.96 19.26 23.6C19.9 24.24 20.2733 25.2867 20.38 26.74L19.08 27.08C19 25.9867 18.7667 25.1733 18.38 24.64C18.0067 24.1067 17.38 23.84 16.5 23.84C15.8067 23.84 15.2533 24.02 14.84 24.38C14.4267 24.74 14.22 25.2733 14.22 25.98C14.22 26.4333 14.3067 26.84 14.48 27.2C14.6533 27.56 14.9467 27.94 15.36 28.34L18.22 31.04C18.9533 31.7333 19.5267 32.4467 19.94 33.18C20.3667 33.9 20.58 34.68 20.58 35.52C20.58 36.6933 20.24 37.6 19.56 38.24C18.88 38.88 17.98 39.2 16.86 39.2ZM25.5592 22.8H27.1592L30.5992 39H29.0992L28.2992 34.66H24.4392L23.6192 39H22.1392L25.5592 22.8ZM28.0992 33.56L26.3792 24.82L24.6592 33.56H28.0992ZM32.9505 22.8H34.4705V37.86H39.0705V39H32.9505V22.8ZM40.9672 22.8H46.8272V23.98H42.5072V30.06H46.0272V31.18H42.5072V37.86H46.8672V39H40.9672V22.8Z" fill="#040A0A"/>
</svg>
