<svg width="26" height="23" viewBox="0 0 26 23" fill="none" xmlns="http://www.w3.org/2000/svg">
<path d="M25.538 21.2201L23.8715 6.22006C23.8336 5.87597 23.67 5.558 23.412 5.32713C23.1541 5.09626 22.82 4.96876 22.4738 4.96908H18.1343C18.0175 3.68823 17.426 2.49732 16.4761 1.63016C15.5263 0.763 14.2865 0.282227 13.0004 0.282227C11.7142 0.282227 10.4745 0.763 9.52457 1.63016C8.57468 2.49732 7.98325 3.68823 7.86637 4.96908H3.52692C3.18075 4.96876 2.84665 5.09626 2.5887 5.32713C2.33076 5.558 2.16714 5.87597 2.12922 6.22006L0.4627 21.2201C0.440864 21.4166 0.460731 21.6156 0.521006 21.8039C0.581281 21.9923 0.680606 22.1658 0.812498 22.3132C0.94439 22.4605 1.10588 22.5784 1.28643 22.6591C1.46697 22.7398 1.66251 22.7816 1.86028 22.7816H24.1403C24.3381 22.7816 24.5336 22.7399 24.7142 22.6592C24.8948 22.5785 25.0563 22.4606 25.1882 22.3132C25.3201 22.1658 25.4194 21.9923 25.4797 21.804C25.54 21.6156 25.5599 21.4166 25.538 21.2201ZM13.0004 1.21908C14.0376 1.22046 15.0381 1.60342 15.8112 2.29499C16.5843 2.98655 17.0759 3.93838 17.1924 4.96908H8.80832C8.9248 3.93838 9.41643 2.98655 10.1895 2.29499C10.9626 1.60342 11.9631 1.22046 13.0004 1.21908ZM24.4897 21.688C24.4459 21.7374 24.3922 21.7769 24.3319 21.8038C24.2717 21.8307 24.2064 21.8445 24.1404 21.8441H1.86028C1.79436 21.8441 1.72918 21.8302 1.669 21.8033C1.60882 21.7763 1.55499 21.737 1.51103 21.6879C1.46707 21.6388 1.43396 21.5809 1.41388 21.5182C1.39379 21.4554 1.38717 21.3891 1.39446 21.3235L3.0611 6.32354C3.07374 6.20886 3.12828 6.10289 3.21424 6.02594C3.30021 5.949 3.41155 5.90649 3.52692 5.90658H7.84411V9.18783C7.84411 9.31215 7.89349 9.43138 7.9814 9.51929C8.06931 9.6072 8.18854 9.65658 8.31286 9.65658C8.43718 9.65658 8.55641 9.6072 8.64431 9.51929C8.73222 9.43138 8.78161 9.31215 8.78161 9.18783V5.90658H17.2191V9.18783C17.2191 9.31215 17.2685 9.43138 17.3564 9.51929C17.4443 9.6072 17.5635 9.65658 17.6879 9.65658C17.8122 9.65658 17.9314 9.6072 18.0193 9.51929C18.1072 9.43138 18.1566 9.31215 18.1566 9.18783V5.90658H22.4738C22.5892 5.90649 22.7005 5.949 22.7865 6.02594C22.8724 6.10289 22.927 6.20886 22.9396 6.32354L24.6063 21.3235C24.6139 21.3891 24.6075 21.4555 24.5873 21.5184C24.5672 21.5812 24.5339 21.639 24.4897 21.688Z" fill="white"/>
</svg>
